PathFileType	4	(X/Y/Z)	/Users/itak/Documents/Research/Walk-IL/dataset/trc/00571_00009.trc
DataRate	CameraRate	NumFrames	NumMarkers	Units	OrigDataRate	OrigDataStartFrame	OrigNumFrames
100.000000	100.000000	4	54	mm	100.000000	187	500
Frame#	Time	RPSI			LPSI			L3			STRN			T10			C7			CLAV			RBAK			LBAK			LSHO			LUPA			LAEL			LAOL			LWTS			LWPS			LFRA			LHPS			LHTS			RSHO			RUPA			RAEL			RAOL			RWPS			RFRA			RHTS			RHPS			RBHD			LFHD			RFHD			LBHD			LHIP			RHIP			RASI			LASI			LKNE			LTHI			LANK			LTIP			LTOE			LMT1			LMT5			LHEE			RKNE			RTHI			RANK			RTIP			RTOE			RMT1			RMT5			RHEE			RWTS			RIFD			LIFD			*53			
		X1	Y1	Z1	X2	Y2	Z2	X3	Y3	Z3	X4	Y4	Z4	X5	Y5	Z5	X6	Y6	Z6	X7	Y7	Z7	X8	Y8	Z8	X9	Y9	Z9	X10	Y10	Z10	X11	Y11	Z11	X12	Y12	Z12	X13	Y13	Z13	X14	Y14	Z14	X15	Y15	Z15	X16	Y16	Z16	X17	Y17	Z17	X18	Y18	Z18	X19	Y19	Z19	X20	Y20	Z20	X21	Y21	Z21	X22	Y22	Z22	X23	Y23	Z23	X24	Y24	Z24	X25	Y25	Z25	X26	Y26	Z26	X27	Y27	Z27	X28	Y28	Z28	X29	Y29	Z29	X30	Y30	Z30	X31	Y31	Z31	X32	Y32	Z32	X33	Y33	Z33	X34	Y34	Z34	X35	Y35	Z35	X36	Y36	Z36	X37	Y37	Z37	X38	Y38	Z38	X39	Y39	Z39	X40	Y40	Z40	X41	Y41	Z41	X42	Y42	Z42	X43	Y43	Z43	X44	Y44	Z44	X45	Y45	Z45	X46	Y46	Z46	X47	Y47	Z47	X48	Y48	Z48	X49	Y49	Z49	X50	Y50	Z50	X51	Y51	Z51	X52	Y52	Z52	X53	Y53	Z53	X54	Y54	Z54	

188	1.87	-657.3524169921875	986.3974609375	-170.3928527832031	-624.411376953125	987.443115234375	-300.6049194335938	-633.737548828125	1091.203491210938	-232.4200897216797	-390.6766662597656	1267.251708984375	-185.9702911376953	-632.6619262695312	1216.324584960938	-228.8329772949219	-571.6697387695312	1487.15966796875	-200.5684509277344	-402.2585754394531	1378.789428710938	-188.3395080566406	-660.4779663085938	1365.169677734375	-127.1051712036133	-595.953125	1437.698120117188	-296.2499084472656	-486.8978271484375	1455.777465820312	-365.6130981445312	-492.7096862792969	1330.2216796875	-445.7398986816406	-474.8953552246094	1111.106079101562	-474.4543762207031	-566.0714111328125	1100.242797851562	-431.677978515625	-375.4849243164062	874.7405395507812	-418.7324523925781	-411.757080078125	849.8322143554688	-494.1355895996094	-447.8915405273438	1026.755493164062	-479.7565002441406	-401.4455261230469	790.4439697265625	-485.3079833984375	-354.1922912597656	797.8303833007812	-437.3157043457031	-537.3627319335938	1446.260986328125	-39.16147613525391	-566.2120971679688	1381.945068359375	25.24014472961426	-576.5003051757812	1093.098876953125	68.85369110107422	-627.016845703125	1073.410766601562	36.73488998413086	-466.6606750488281	860.8169555664062	96.30361938476562	-561.35205078125	1037.614379882812	74.43780517578125	-380.5411071777344	801.4307250976562	52.15126800537109	-440.2730712890625	789.7437133789062	93.05580902099609	-497.1661071777344	1660.654663085938	-124.0584411621094	-312.4371337890625	1675.948364257812	-217.6167144775391	-363.3680419921875	1670.823364257812	-82.61709594726562	-432.2853698730469	1664.06787109375	-276.1913146972656	-455.2290344238281	922.5911865234375	-392.7403869628906	-569.4310913085938	912.552978515625	-21.71416091918945	-469.8337707519531	948.23046875	-52.5615119934082	-401.5296325683594	952.5387573242188	-320.1640319824219	-259.8529663085938	528.7279052734375	-284.2682495117188	-324.1655883789062	676.2977905273438	-344.4057006835938	-205.5165710449219	39.69159317016602	-301.7244567871094	-243.4255981445312	275.9597778320312	-311.1182250976562	-53.8445930480957	95.69700622558594	-163.9841613769531	-131.3816223144531	82.03993225097656	-163.1010437011719	-94.55368041992188	60.72042465209961	-260.2477722167969	-290.7603454589844	32.19028091430664	-285.5074768066406	-554.6231079101562	474.7908020019531	-124.7317276000977	-532.2548828125	755.8944702148438	-37.59868621826172	-719.2853393554688	41.38722991943359	-214.2283020019531	-576.5615844726562	333.3584289550781	-161.3385620117188	-498.9580383300781	36.9503173828125	-255.2835998535156	-564.3646240234375	34.4742317199707	-295.6581420898438	-587.528076171875	39.78957748413086	-194.9597625732422	-774.9594116210938	34.49620056152344	-266.0025634765625	-417.3450622558594	889.5653076171875	35.95743179321289	-388.3311462402344	719.1817016601562	32.5122184753418	-375.0468139648438	705.4887084960938	-420.4594421386719	nan	nan	nan	
189	1.88	-649.340576171875	985.2222900390625	-169.33984375	-615.364013671875	986.1362915039062	-299.2899780273438	-625.3522338867188	1090.100219726562	-231.1952362060547	-382.9524230957031	1266.142456054688	-182.7907257080078	-624.6493530273438	1215.260131835938	-227.5568389892578	-563.8616943359375	1486.124389648438	-198.6994476318359	-394.4076538085938	1377.769165039062	-185.2515563964844	-653.2241821289062	1364.084228515625	-125.9540786743164	-587.3128051757812	1436.700805664062	-294.5582580566406	-477.7380676269531	1454.801391601562	-363.0539855957031	-482.9789123535156	1329.286499023438	-443.3601989746094	-465.4635925292969	1110.15576171875	-472.2781982421875	-556.9593505859375	1099.525146484375	-430.0986938476562	-367.66015625	873.0093994140625	-416.4953308105469	-403.4007263183594	848.7073364257812	-492.306640625	-438.7969360351562	1025.715209960938	-477.6045837402344	-393.6080322265625	789.1828002929688	-483.5600280761719	-346.7796630859375	796.0015869140625	-435.1614685058594	-530.7127685546875	1445.053833007812	-37.00099945068359	-560.057373046875	1380.636352539062	27.16180419921875	-570.803955078125	1091.71875	70.30813598632812	-621.0922241210938	1072.149536132812	37.68943786621094	-462.1509094238281	858.9965209960938	98.68659210205078	-556.0128173828125	1036.224365234375	76.16194152832031	-375.82861328125	799.32958984375	55.05027008056641	-436.2279663085938	787.9895629882812	95.68099212646484	-489.7729797363281	1659.498779296875	-121.4293594360352	-304.2523803710938	1674.721069335938	-213.4520111083984	-356.3765869140625	1669.406372070312	-78.89979553222656	-423.6576232910156	1663.058227539062	-272.9547424316406	-445.5323486328125	921.4537963867188	-390.190185546875	-562.7816162109375	911.7176513671875	-19.87403678894043	-462.7324829101562	947.2918090820312	-50.08317565917969	-392.4046325683594	951.4088134765625	-317.0200500488281	-251.9491271972656	527.4303588867188	-279.6083984375	-315.1178894042969	674.7510986328125	-341.1552124023438	-185.9149932861328	39.4404182434082	-290.2394714355469	-229.3809356689453	275.1999206542969	-303.3629150390625	-40.24853515625	100.7748260498047	-148.0211486816406	-117.4524612426758	85.54811859130859	-149.6264038085938	-76.757080078125	63.39224243164062	-245.2121734619141	-271.4767150878906	30.43308639526367	-276.7315368652344	-551.34423828125	474.2839050292969	-123.3236846923828	-526.59033203125	754.9960327148438	-35.62985610961914	-719.1907958984375	41.982177734375	-214.3784484863281	-574.4156494140625	333.0806884765625	-160.2319793701172	-498.9547729492188	36.91323089599609	-255.1732482910156	-564.3108520507812	34.63004302978516	-295.528564453125	-587.611328125	39.76846313476562	-194.7983856201172	-774.8417358398438	35.87454223632812	-266.2380065917969	-412.28564453125	887.4849243164062	38.68375015258789	-384.0186157226562	717.0006103515625	35.58041763305664	-368.4600219726562	703.6788940429688	-418.7431030273438	nan	nan	nan	
190	1.89	-641.1544189453125	984.0362548828125	-168.3029479980469	-606.1197509765625	984.7800903320312	-297.9743957519531	-616.8344116210938	1088.942016601562	-229.9872741699219	-375.1655883789062	1265.048217773438	-179.6063842773438	-616.53759765625	1214.15087890625	-226.3114166259766	-556.0484008789062	1485.057250976562	-196.8460083007812	-386.6177673339844	1376.71533203125	-182.1797332763672	-645.9359130859375	1362.948120117188	-124.816162109375	-578.6639404296875	1435.6591796875	-292.863037109375	-468.5978698730469	1453.794189453125	-360.50439453125	-473.2726135253906	1328.317260742188	-440.9671630859375	-455.9828186035156	1109.17724609375	-470.0694885253906	-547.7815551757812	1098.760620117188	-428.4804382324219	-359.71875	871.2929077148438	-414.2317810058594	-394.9407958984375	847.5677490234375	-490.4216918945312	-429.6267395019531	1024.638061523438	-475.4210205078125	-385.6399536132812	787.9236450195312	-481.763916015625	-339.2261047363281	794.2024536132812	-432.9797058105469	-524.07470703125	1443.82421875	-34.86268615722656	-553.9009399414062	1379.309448242188	29.06225395202637	-565.1210327148438	1090.326538085938	71.75340270996094	-615.1689453125	1070.883422851562	38.63021850585938	-457.7966613769531	857.1100463867188	101.1152572631836	-550.7611694335938	1034.801513671875	77.92684936523438	-371.3173522949219	797.0660400390625	58.04110336303711	-432.3836975097656	786.1734619140625	98.41115570068359	-482.3630676269531	1658.342651367188	-118.8037567138672	-296.0340881347656	1673.454956054688	-209.2573089599609	-349.3744506835938	1667.951293945312	-75.17619323730469	-414.9837341308594	1662.053955078125	-269.7063903808594	-435.6598510742188	920.2691040039062	-387.4921875	-556.0308227539062	910.9033203125	-18.01393508911133	-455.5724792480469	946.296875	-47.55168533325195	-383.0412902832031	950.310302734375	-313.8196105957031	-243.9341278076172	526.0560913085938	-274.7609252929688	-305.7778625488281	673.2022705078125	-337.6709899902344	-168.6400756835938	39.1842155456543	-279.3539428710938	-216.4918212890625	274.3849182128906	-295.7270812988281	-28.63155364990234	105.2010116577148	-133.1123046875	-105.4493408203125	88.49917602539062	-136.9974365234375	-61.2510986328125	65.80534362792969	-231.0807647705078	-254.443359375	28.77870559692383	-268.3444519042969	-547.84521484375	473.7979736328125	-121.8613586425781	-520.7680053710938	754.1077880859375	-33.66569137573242	-719.0647583007812	42.68612670898438	-214.5265960693359	-572.063232421875	332.8262634277344	-159.0835876464844	-498.9362487792969	36.87467575073242	-255.0591125488281	-564.2551879882812	34.80963134765625	-295.3888244628906	-587.6773071289062	39.74159622192383	-194.6241912841797	-774.6917724609375	37.42834854125977	-266.4909362792969	-407.3382568359375	885.2822265625	41.46337509155273	-379.9259948730469	714.6886596679688	38.73873519897461	-361.6620178222656	701.9000854492188	-417.0119934082031	nan	nan	nan	
191	1.9	-632.7930908203125	982.8690185546875	-167.2922058105469	-596.66943359375	983.419921875	-296.6653137207031	-608.1712036132812	1087.747314453125	-228.8054809570312	-367.3078918457031	1263.992797851562	-176.4162139892578	-608.30078125	1213.010375976562	-225.1013793945312	-548.2257690429688	1483.970703125	-195.008544921875	-378.887939453125	1375.649169921875	-179.1166076660156	-638.60546875	1361.771118164062	-123.7001190185547	-570.0065307617188	1434.583740234375	-291.1670532226562	-459.4732971191406	1452.774169921875	-357.9736633300781	-463.5930480957031	1327.329223632812	-438.562744140625	-446.4557495117188	1108.188720703125	-467.8208618164062	-538.543212890625	1097.966674804688	-426.8117065429688	-351.6382141113281	869.6234741210938	-411.9424438476562	-386.3742980957031	846.4301147460938	-488.4775085449219	-420.386474609375	1023.542724609375	-473.2021484375	-377.5340881347656	786.6815185546875	-479.916259765625	-331.5260925292969	792.4457397460938	-430.7542114257812	-517.4490966796875	1442.588256835938	-32.74910354614258	-547.7457885742188	1377.986572265625	30.93148040771484	-559.4522094726562	1088.945678710938	73.19320678710938	-609.2208862304688	1069.627563476562	39.54027938842773	-453.5958862304688	855.1834716796875	103.5950622558594	-545.5856323242188	1033.367797851562	79.72225189208984	-367.0362854003906	794.6494750976562	61.13966751098633	-428.6983947753906	784.271728515625	101.252326965332	-474.9442443847656	1657.207641601562	-116.1858444213867	-287.7912292480469	1672.175903320312	-205.0357208251953	-342.3631896972656	1666.4892578125	-71.44339752197266	-406.2695007324219	1661.078247070312	-266.4527587890625	-425.5884399414062	919.0578002929688	-384.6390380859375	-549.1951904296875	910.1190795898438	-16.14677429199219	-448.3558044433594	945.2648315429688	-44.95335388183594	-373.4328918457031	949.2647094726562	-310.5513916015625	-235.8374328613281	524.6163330078125	-269.7243957519531	-296.2079467773438	671.6497802734375	-333.9351196289062	-153.7704467773438	38.78403091430664	-269.1706237792969	-204.7930450439453	273.4198913574219	-288.2460327148438	-18.84916496276855	108.6766128540039	-119.4372406005859	-95.28064727783203	90.66912078857422	-125.3344573974609	-48.05046081542969	67.67177581787109	-218.0263519287109	-239.7826690673828	27.17558288574219	-260.4102172851562	-544.0847778320312	473.3297424316406	-120.3368225097656	-514.7904052734375	753.233642578125	-31.70879936218262	-718.8992919921875	43.51450347900391	-214.6606597900391	-569.4756469726562	332.5896911621094	-157.8773040771484	-498.901123046875	36.83795547485352	-254.9432373046875	-564.1910400390625	35.0263557434082	-295.2287292480469	-587.7166748046875	39.70876693725586	-194.4361572265625	-774.5048217773438	39.17952728271484	-266.7493286132812	-402.5072326660156	882.9810791015625	44.30502319335938	-376.0669555664062	712.2659301757812	41.97838592529297	-354.6603698730469	700.1690063476562	-415.2479858398438	nan	nan	nan	
